<svg width="15" height="15" viewBox="0 0 15 15" fill="none" xmlns="http://www.w3.org/2000/svg">
<path d="M1.54264 6.64349L6.64302 1.54344C6.94274 1.24374 7.09297 1.09352 7.26558 1.03791C7.41725 0.987362 7.58119 0.987362 7.73358 1.03791C7.90692 1.09352 8.05642 1.24374 8.35615 1.54344L13.4565 6.64349C13.7562 6.9432 13.9065 7.09341 13.9621 7.26601C14.0126 7.41767 14.0126 7.58161 13.9621 7.73399C13.9065 7.90731 13.7562 8.0568 13.4565 8.35651L8.35615 13.4566C8.05642 13.7563 7.9062 13.9065 7.73358 13.9621C7.58192 14.0126 7.41797 14.0126 7.26558 13.9621C7.09224 13.9065 6.94274 13.7563 6.64302 13.4566L1.54264 8.35651C1.24292 8.0568 1.09269 7.90659 1.03708 7.73399C0.98764 7.58191 0.98764 7.41809 1.03708 7.26601C1.09269 7.09269 1.24292 6.9432 1.54264 6.64349Z" stroke="white" stroke-linecap="round" stroke-linejoin="round"/>
</svg>
