<svg width="12" height="12" viewBox="0 0 12 12" fill="none" xmlns="http://www.w3.org/2000/svg">
<path d="M10.5846 5.58228L6.68017 1.6781C6.45073 1.44867 6.33573 1.33368 6.20359 1.29111C6.08749 1.25241 5.96198 1.25241 5.84533 1.29111C5.71263 1.33368 5.59819 1.44867 5.36874 1.6781L1.46432 5.58228C1.23487 5.81171 1.11987 5.9267 1.0773 6.05883C1.0386 6.17492 1.0386 6.30042 1.0773 6.41707C1.11987 6.54975 1.23487 6.66419 1.46432 6.89362L5.36874 10.7978C5.59819 11.0272 5.71319 11.1422 5.84533 11.1848C5.96143 11.2235 6.08693 11.2235 6.20359 11.1848C6.33628 11.1422 6.45073 11.0272 6.68017 10.7978L10.5846 6.89362C10.814 6.66419 10.929 6.5492 10.9716 6.41707C11.0095 6.30065 11.0095 6.17524 10.9716 6.05883C10.929 5.92614 10.814 5.81171 10.5846 5.58228Z" stroke="white" stroke-linecap="round" stroke-linejoin="round"/>
</svg>
