<svg width="81" height="91" viewBox="0 0 81 91" fill="none" xmlns="http://www.w3.org/2000/svg">
<path d="M0 0H81L76.5794 77.4516L40.506 91L4.42462 77.4516L0 0ZM4.42462 3.88592L8.53119 74.871L40.498 86.144L72.4688 74.871L76.5794 3.88592L4.42462 3.88592ZM14.2603 16.129H65.9829L65.548 23.7379L36.1982 37.8105H64.7428L63.1163 66.375L40.498 74.871L17.8797 66.375L17.4207 58.3347V58.3186L17.1187 52.7137L21.612 52.7137V58.3186V63.71L40.506 70.7481L60.262 63.71V42.5956H19.8552L28.2 37.8105L60.262 21.0413L40.498 21.0413L14.2603 21.0413V16.129Z" fill="white" fill-opacity="0.6"/>
</svg>
