<svg width="81" height="84" viewBox="0 0 81 84" fill="none" xmlns="http://www.w3.org/2000/svg">
<path fill-rule="evenodd" clip-rule="evenodd" d="M80.3941 18.6801C80.424 18.7902 80.4392 18.9037 80.4395 19.0177V36.7417C80.4395 36.9692 80.3793 37.1927 80.2649 37.3895C80.1506 37.5864 79.9861 37.7496 79.7882 37.8628L64.8697 46.4276V63.4036C64.8697 63.8656 64.6234 64.2921 64.2217 64.5247L33.0804 82.4006C33.0091 82.4409 32.9314 82.4668 32.8536 82.4943C32.8244 82.504 32.7969 82.5217 32.7661 82.5298C32.5484 82.587 32.3196 82.587 32.1019 82.5298C32.0663 82.5201 32.0339 82.5007 31.9999 82.4878C31.9286 82.462 31.8541 82.4393 31.786 82.4006L0.65124 64.5247C0.45345 64.4114 0.289106 64.2481 0.174773 64.0513C0.0604396 63.8545 0.000156718 63.6311 0 63.4036L0 10.2316C0 10.1153 0.0162 10.0023 0.04536 9.89241C0.05508 9.85526 0.07776 9.82133 0.09072 9.78418C0.11502 9.71633 0.1377 9.64687 0.17334 9.58387C0.19764 9.54187 0.23328 9.50795 0.26244 9.46918C0.2997 9.41749 0.33372 9.36418 0.37746 9.31895C0.41472 9.28179 0.46332 9.25433 0.50544 9.22202C0.55242 9.18326 0.59454 9.14125 0.648 9.11056L16.2178 0.172638C16.4149 0.0595298 16.6384 0 16.8658 0C17.0933 0 17.3167 0.0595298 17.5138 0.172638L33.082 9.11056H33.0853C33.1371 9.14287 33.1808 9.18326 33.2278 9.22041C33.2699 9.25272 33.3169 9.28179 33.3542 9.31733C33.3995 9.36418 33.4319 9.41749 33.4708 9.46918C33.4984 9.50795 33.5356 9.54187 33.5583 9.58387C33.5956 9.64849 33.6166 9.71633 33.6425 9.78418C33.6555 9.82133 33.6782 9.85526 33.6879 9.89402C33.7177 10.0041 33.733 10.1176 33.7333 10.2316V43.4423L46.7062 35.9938V19.0161C46.7062 18.903 46.7224 18.7883 46.7516 18.6801C46.7629 18.6413 46.784 18.6074 46.7969 18.5703C46.8229 18.5024 46.8455 18.4329 46.8812 18.3699C46.9055 18.3279 46.9411 18.294 46.9687 18.2553C47.0075 18.2036 47.0399 18.1503 47.0853 18.105C47.1226 18.0679 47.1695 18.0404 47.2117 18.0081C47.2603 17.9693 47.3024 17.9273 47.3542 17.8966L62.9257 8.95872C63.1227 8.84545 63.3462 8.78583 63.5737 8.78583C63.8011 8.78583 64.0246 8.84545 64.2217 8.95872L79.7899 17.8966C79.8449 17.9289 79.8871 17.9693 79.9357 18.0065C79.9762 18.0388 80.0231 18.0679 80.0604 18.1034C80.1058 18.1503 80.1382 18.2036 80.177 18.2553C80.2062 18.294 80.2419 18.3279 80.2645 18.3699C80.3018 18.4329 80.3228 18.5024 80.3488 18.5703C80.3633 18.6074 80.3844 18.6413 80.3941 18.6801ZM77.8442 35.9938V21.255L72.3962 24.3824L64.8697 28.7036V43.4423L77.8459 35.9938H77.8442ZM62.276 62.6557V47.9073L54.8726 52.1234L33.7316 64.1548V79.0422L62.276 62.6557ZM2.59524 12.4689V62.6557L31.1364 79.0406V64.1564L16.2259 55.7419L16.2211 55.7386L16.2146 55.7354C16.1644 55.7063 16.1222 55.6643 16.0753 55.6288C16.0348 55.5965 15.9878 55.5706 15.9521 55.5351L15.9489 55.5303C15.9068 55.4899 15.8776 55.4398 15.842 55.3946C15.8096 55.351 15.7707 55.3138 15.7448 55.2686L15.7432 55.2637C15.714 55.2153 15.6962 55.1571 15.6751 55.1022C15.6541 55.0537 15.6265 55.0085 15.6136 54.9568C15.5974 54.8954 15.5941 54.8292 15.5876 54.7662C15.5812 54.7177 15.5682 54.6693 15.5682 54.6208V54.6176V19.9175L8.0433 15.5947L2.59524 12.4689ZM16.8674 2.78633L3.8961 10.2316L16.8642 17.6769L29.8339 10.23L16.8642 2.78633H16.8674ZM23.6131 49.2513L31.138 44.9317V12.4689L25.69 15.5963L18.1634 19.9175V52.3803L23.6131 49.2513ZM63.5737 11.5724L50.6039 19.0177L63.5737 26.463L76.5418 19.0161L63.5737 11.5724ZM62.276 28.7036L54.7495 24.3824L49.3015 21.255V35.9938L56.8264 40.3133L62.276 43.4423V28.7036ZM32.4324 61.9175L51.4561 51.088L60.9655 45.6764L48.0055 38.236L33.0836 46.8023L19.4837 54.6095L32.4324 61.9175Z" fill="#FFFDFD" fill-opacity="0.6"/>
</svg>
