<svg width="124" height="92" viewBox="0 0 124 92" fill="none" xmlns="http://www.w3.org/2000/svg">
<path d="M101.902 88.7016L102.022 88.4577C102.139 88.2679 102.234 88.0653 102.305 87.8537V87.8344C102.689 86.8278 102.77 85.7593 102.588 84.6869V84.7256C102.389 83.5905 101.977 82.503 101.375 81.5201L101.414 81.5588L73.9219 33.267L69.7249 25.9461L38.1177 81.5588C37.5712 82.5267 37.2302 83.5758 37.0481 84.6637V84.7256C36.8272 85.9761 36.9667 87.2459 37.4705 88.4151L37.4511 88.3764C37.5131 88.5583 37.6139 88.7209 37.7146 88.899L37.6953 88.8796C38.5246 90.2927 40.2801 91.9845 44.1554 91.9845H95.3021C96.1082 91.9845 100.084 91.8219 101.921 88.6977L101.902 88.7016ZM69.7288 40.611L94.8371 84.7295H44.6399L69.7288 40.611ZM122.689 81.5666L86.4392 17.7697C86.0556 17.0845 83.9784 13.697 80.324 13.697C78.6886 13.697 76.3479 14.4016 74.4296 17.7504L69.7482 25.9578L73.9064 33.2979L80.3666 21.8657L116.233 84.7566H102.588C102.77 85.8057 102.669 86.8743 102.305 87.8808V87.8421C102.224 88.0628 102.142 88.2873 102.022 88.4886V88.4693L101.902 88.7132C100.065 91.8374 96.1082 92 95.3409 92H116.675C117.461 92 121.399 91.8374 123.236 88.7132C124.065 87.2808 124.627 84.9037 122.689 81.5743V81.5666ZM37.7379 88.8835L37.4937 88.3996V88.3802C36.9865 87.2206 36.8315 85.9377 37.0481 84.6908V84.7256L7.73888 84.7295L51.2977 8.16866L65.5466 33.2979L69.7443 25.95L57.2696 4.01077C56.9247 3.38748 54.8281 0 51.1931 0C49.5577 0 47.1976 0.704596 45.2987 4.07272L1.17794 81.5627C0.794277 82.2286 -1.02326 85.7361 0.794277 88.8603C1.6236 90.2927 3.37913 91.9652 7.25447 91.9652H44.1903C40.3537 91.9652 38.5594 90.3121 37.7301 88.8603L37.7379 88.8835Z" fill="white" fill-opacity="0.6"/>
</svg>
