<svg width="97" height="84" viewBox="0 0 97 84" fill="none" xmlns="http://www.w3.org/2000/svg">
<path d="M96.7078 1.24937C96.5148 0.912039 96.2362 0.631841 95.9001 0.437223C95.564 0.242606 95.1825 0.1405 94.7943 0.141271L72.7933 0.128027L72.7625 0.119197L55.1264 0.0044144H55.1132C54.7305 0.00360407 54.3542 0.10299 54.0216 0.292716C53.689 0.482441 53.4118 0.755917 53.2173 1.08602L48.4909 9.05459L43.7733 1.19639C43.5809 0.871589 43.3083 0.601859 42.9817 0.41319C42.655 0.22452 42.2853 0.123271 41.9082 0.119197L24.2722 0H24.2502C24.0979 0.0233796 23.9485 0.0633489 23.8049 0.119197H2.20516C1.81726 0.119082 1.43621 0.221448 1.10047 0.415959C0.764726 0.61047 0.486184 0.890239 0.292966 1.22702C0.0997485 1.5638 -0.00130406 1.94566 1.27058e-05 2.33405C0.00132947 2.72244 0.104969 3.10361 0.300466 3.43907L46.595 82.904C46.7891 83.2375 47.0671 83.5142 47.4013 83.7065C47.7355 83.8988 48.1142 84 48.4997 84C48.8852 84 49.2639 83.8988 49.5981 83.7065C49.9323 83.5142 50.2103 83.2375 50.4044 82.904L96.6989 3.46114C96.8946 3.12583 96.9984 2.74478 97 2.35644C97.0015 1.9681 96.9007 1.58623 96.7078 1.24937ZM40.634 4.52509L46.6082 14.4979C46.8041 14.8252 47.0812 15.096 47.4127 15.284C47.7442 15.472 48.1187 15.5708 48.4997 15.5707H48.5041C48.8859 15.5699 49.261 15.4698 49.5926 15.2802C49.9241 15.0906 50.2008 14.818 50.3956 14.4891L56.361 4.42355L68.8384 4.51184L55.585 26.219L48.4997 37.8209L28.1918 4.44121L40.634 4.52509ZM48.4997 77.4121L6.04099 4.53392H23.0157L46.6171 43.2069C46.787 43.4589 47.0078 43.6724 47.2652 43.8338C47.3269 43.8779 47.3578 43.9485 47.4195 43.9838C47.9171 44.2644 48.5041 44.3407 49.0567 44.1966C49.6094 44.0525 50.0846 43.6992 50.3824 43.2113L73.9838 4.54275L90.9584 4.55158L48.4997 77.4121Z" fill="white" fill-opacity="0.6"/>
</svg>
